<?xml version="1.0" encoding="UTF-8"?><svg id="Layer_1" xmlns="http://www.w3.org/2000/svg" viewBox="0 0 451.001 64"><defs><style>.cls-1{fill:currentColor;}</style></defs><path class="cls-1" d="M0,0v64h135V0H0ZM37.587,49.803l-12.234-17.391-5.625,5.484v11.906h-4.547V15.443h4.547v17.039l17.062-17.039h6.164l-14.414,13.922,15.047,20.438h-6ZM52.704,49.803h-4.547V15.443h4.547v34.359ZM84.954,45.268c-1.047,1.617-2.551,2.875-4.512,3.773s-4.168,1.348-6.621,1.348c-3.109,0-5.715-.453-7.816-1.359s-3.75-2.27-4.945-4.09-1.824-3.879-1.887-6.176l4.289-.375c.203,1.719.676,3.129,1.418,4.23s1.895,1.992,3.457,2.672,3.32,1.02,5.273,1.02c1.734,0,3.266-.258,4.594-.773s2.316-1.223,2.965-2.121.973-1.879.973-2.941c0-1.078-.312-2.02-.938-2.824s-1.656-1.48-3.094-2.027c-.922-.359-2.961-.918-6.117-1.676s-5.367-1.473-6.633-2.145c-1.641-.859-2.863-1.926-3.668-3.199s-1.207-2.699-1.207-4.277c0-1.734.492-3.355,1.477-4.863s2.422-2.652,4.312-3.434,3.992-1.172,6.305-1.172c2.547,0,4.793.41,6.738,1.23s3.441,2.027,4.488,3.621,1.609,3.398,1.688,5.414l-4.359.328c-.234-2.172-1.027-3.812-2.379-4.922s-3.348-1.664-5.988-1.664c-2.75,0-4.754.504-6.012,1.512s-1.887,2.223-1.887,3.645c0,1.234.445,2.25,1.336,3.047.875.797,3.16,1.613,6.855,2.449s6.23,1.566,7.605,2.191c2,.922,3.477,2.09,4.43,3.504s1.43,3.043,1.43,4.887c0,1.828-.523,3.551-1.57,5.168ZM116.97,45.268c-1.047,1.617-2.551,2.875-4.512,3.773s-4.168,1.348-6.621,1.348c-3.109,0-5.715-.453-7.816-1.359s-3.75-2.27-4.945-4.09-1.824-3.879-1.887-6.176l4.289-.375c.203,1.719.676,3.129,1.418,4.23s1.895,1.992,3.457,2.672,3.32,1.02,5.273,1.02c1.734,0,3.266-.258,4.594-.773s2.316-1.223,2.965-2.121.973-1.879.973-2.941c0-1.078-.312-2.02-.938-2.824s-1.656-1.48-3.094-2.027c-.922-.359-2.961-.918-6.117-1.676s-5.367-1.473-6.633-2.145c-1.641-.859-2.863-1.926-3.668-3.199s-1.207-2.699-1.207-4.277c0-1.734.492-3.355,1.477-4.863s2.422-2.652,4.312-3.434,3.992-1.172,6.305-1.172c2.547,0,4.793.41,6.738,1.23s3.441,2.027,4.488,3.621,1.609,3.398,1.688,5.414l-4.359.328c-.234-2.172-1.027-3.812-2.379-4.922s-3.348-1.664-5.988-1.664c-2.75,0-4.754.504-6.012,1.512s-1.887,2.223-1.887,3.645c0,1.234.445,2.25,1.336,3.047.875.797,3.16,1.613,6.855,2.449s6.23,1.566,7.605,2.191c2,.922,3.477,2.09,4.43,3.504s1.43,3.043,1.43,4.887c0,1.828-.523,3.551-1.57,5.168Z"/><path class="cls-1" d="M151.235,49.803V15.443h12.891c2.625,0,4.73.348,6.316,1.043s2.828,1.766,3.727,3.211,1.348,2.957,1.348,4.535c0,1.469-.398,2.852-1.195,4.148s-2,2.344-3.609,3.141c2.078.609,3.676,1.648,4.793,3.117s1.676,3.203,1.676,5.203c0,1.609-.34,3.105-1.02,4.488s-1.52,2.449-2.52,3.199-2.254,1.316-3.762,1.699-3.355.574-5.543.574h-13.102ZM155.782,29.881h7.43c2.016,0,3.461-.133,4.336-.398,1.156-.344,2.027-.914,2.613-1.711s.879-1.797.879-3c0-1.141-.273-2.145-.82-3.012s-1.328-1.461-2.344-1.781-2.758-.48-5.227-.48h-6.867v10.383ZM155.782,45.748h8.555c1.469,0,2.5-.055,3.094-.164,1.047-.188,1.922-.5,2.625-.938s1.281-1.074,1.734-1.91.68-1.801.68-2.895c0-1.281-.328-2.395-.984-3.34s-1.566-1.609-2.73-1.992-2.84-.574-5.027-.574h-7.945v11.812Z"/><path class="cls-1" d="M179.665,49.803l13.195-34.359h4.898l14.062,34.359h-5.18l-4.008-10.406h-14.367l-3.773,10.406h-4.828ZM189.579,35.693h11.648l-3.586-9.516c-1.094-2.891-1.906-5.266-2.438-7.125-.438,2.203-1.055,4.391-1.852,6.562l-3.773,10.078Z"/><path class="cls-1" d="M215.407,49.803V15.443h4.664l18.047,26.977V15.443h4.359v34.359h-4.664l-18.047-27v27h-4.359Z"/><path class="cls-1" d="M250.118,49.803V15.443h11.836c2.672,0,4.711.164,6.117.492,1.969.453,3.648,1.273,5.039,2.461,1.812,1.531,3.168,3.488,4.066,5.871s1.348,5.105,1.348,8.168c0,2.609-.305,4.922-.914,6.938s-1.391,3.684-2.344,5.004-1.996,2.359-3.129,3.117-2.5,1.332-4.102,1.723-3.441.586-5.52.586h-12.398ZM254.665,45.748h7.336c2.266,0,4.043-.211,5.332-.633s2.316-1.016,3.082-1.781c1.078-1.078,1.918-2.527,2.52-4.348s.902-4.027.902-6.621c0-3.594-.59-6.355-1.77-8.285s-2.613-3.223-4.301-3.879c-1.219-.469-3.18-.703-5.883-.703h-7.219v26.25Z"/><path class="cls-1" d="M283.235,38.764l4.289-.375c.203,1.719.676,3.129,1.418,4.23s1.895,1.992,3.457,2.672,3.32,1.02,5.273,1.02c1.734,0,3.266-.258,4.594-.773s2.316-1.223,2.965-2.121.973-1.879.973-2.941c0-1.078-.312-2.02-.938-2.824s-1.656-1.48-3.094-2.027c-.922-.359-2.961-.918-6.117-1.676s-5.367-1.473-6.633-2.145c-1.641-.859-2.863-1.926-3.668-3.199s-1.207-2.699-1.207-4.277c0-1.734.492-3.355,1.477-4.863s2.422-2.652,4.312-3.434,3.992-1.172,6.305-1.172c2.547,0,4.793.41,6.738,1.23s3.441,2.027,4.488,3.621,1.609,3.398,1.688,5.414l-4.359.328c-.234-2.172-1.027-3.812-2.379-4.922s-3.348-1.664-5.988-1.664c-2.75,0-4.754.504-6.012,1.512s-1.887,2.223-1.887,3.645c0,1.234.445,2.25,1.336,3.047.875.797,3.16,1.613,6.855,2.449s6.23,1.566,7.605,2.191c2,.922,3.477,2.09,4.43,3.504s1.43,3.043,1.43,4.887c0,1.828-.523,3.551-1.57,5.168s-2.551,2.875-4.512,3.773-4.168,1.348-6.621,1.348c-3.109,0-5.715-.453-7.816-1.359s-3.75-2.27-4.945-4.09-1.824-3.879-1.887-6.176Z"/><path class="cls-1" d="M338.009,49.803v-30.305h-11.32v-4.055h27.234v4.055h-11.367v30.305h-4.547Z"/><path class="cls-1" d="M358.657,49.803V15.443h15.234c3.062,0,5.391.309,6.984.926s2.867,1.707,3.82,3.27,1.43,3.289,1.43,5.18c0,2.438-.789,4.492-2.367,6.164s-4.016,2.734-7.312,3.188c1.203.578,2.117,1.148,2.742,1.711,1.328,1.219,2.586,2.742,3.773,4.57l5.977,9.352h-5.719l-4.547-7.148c-1.328-2.062-2.422-3.641-3.281-4.734s-1.629-1.859-2.309-2.297-1.371-.742-2.074-.914c-.516-.109-1.359-.164-2.531-.164h-5.273v15.258h-4.547ZM363.204,30.607h9.773c2.078,0,3.703-.215,4.875-.645s2.062-1.117,2.672-2.062.914-1.973.914-3.082c0-1.625-.59-2.961-1.77-4.008s-3.043-1.57-5.59-1.57h-10.875v11.367Z"/><path class="cls-1" d="M393.345,49.803V15.443h24.844v4.055h-20.297v10.523h19.008v4.031h-19.008v11.695h21.094v4.055h-25.641Z"/><path class="cls-1" d="M425.36,49.803V15.443h24.844v4.055h-20.297v10.523h19.008v4.031h-19.008v11.695h21.094v4.055h-25.641Z"/></svg>